# xmcd CD database file
#
# Track frame offsets:
#	182
#	23537
#	44735
#	68340
#	89172
#	111287
#	133707
#	160220
#	183145
#	204245
#
# Disc length: 2946 seconds
#
# Revision: 1
# Processed by: cddbd v1.5.1PL2 Copyright (c) Steve Scherf et al.
# Submitted via: CDex 1.50
#
DISCID=810b800a
DTITLE=Lalo Rodriguez, Lefty Perez, David Pabon - Los Bravos De La Salsa Vol. 3
DYEAR=1900
DGENRE=Salsa
TTITLE0=Lalo Rodriguez-Lo Que Me Lastima
TTITLE1=Lefty Perez-Carino Mio
TTITLE2=David Pabon-Aquel Viejo Motel
TTITLE3=Lalo Rodriguez-Te Estoy Pidiendo
TTITLE4=Lefty Perez-Encadenados
TTITLE5=Lalo Rodriguez-Si, Te Menti
TTITLE6=Lefty Perez-El Final De Nuestra Historia
TTITLE7=David Pabon-Mis Ganas Se Quedaron
TTITLE8=Lalo Rodriguez-Tu Ni Te Piensas
TTITLE9=David Pabon-Cuando Hazemos El Amor
EXTD=
EXTT0=
EXTT1=
EXTT2=
EXTT3=
EXTT4=
EXTT5=
EXTT6=
EXTT7=
EXTT8=
EXTT9=
PLAYORDER=
